<?xml version="1.0" standalone="no"?>
<!DOCTYPE svg PUBLIC "-//W3C//DTD SVG 1.1//EN" "http://www.w3.org/Graphics/SVG/1.1/DTD/svg11.dtd">
<svg width="96px" height="96px" version="1.1" xmlns="http://www.w3.org/2000/svg" xmlns:xlink="http://www.w3.org/1999/xlink" xml:space="preserve" style="fill-rule:evenodd;clip-rule:evenodd;stroke-linejoin:round;stroke-miterlimit:1.41421;">
    <g id="Layer_1">
        <g>
            <path d="M48.777,40.6605C44.4689,40.6605 40.9637,44.1657 40.9637,48.4738C40.9637,52.782 44.4689,56.2842 48.777,56.2842C53.0852,56.2842 56.5904,52.7797 56.5904,48.4738C56.5904,44.1657 53.0852,40.6605 48.777,40.6605ZM48.777,53.0516C46.2526,53.0516 44.1993,50.999 44.1993,48.4738C44.1993,45.9486 46.2526,43.896 48.777,43.896C51.3074,43.896 53.3578,45.9494 53.3578,48.4738C53.3578,50.9983 51.3074,53.0516 48.777,53.0516Z" style="fill:rgb(228,68,49);fill-rule:nonzero;"/>
        </g>
        <g>
            <path d="M50.3918,48.4738C50.3918,49.3657 49.6689,50.0886 48.777,50.0886C47.8852,50.0886 47.1622,49.3657 47.1622,48.4738C47.1622,47.582 47.8852,46.859 48.777,46.859C49.6689,46.859 50.3918,47.582 50.3918,48.4738Z" style="fill:rgb(228,68,49);fill-rule:nonzero;"/>
        </g>
        <g>
            <path d="M48.777,12.9183C29.1711,12.9183 13.2215,28.8679 13.2215,48.4738C13.2215,68.0768 29.1711,84.0294 48.777,84.0294C68.383,84.0294 84.3326,68.0797 84.3326,48.4738C84.3326,28.8679 68.383,12.9183 48.777,12.9183ZM48.777,19.1138C50.8807,19.1138 52.9815,19.336 55.0141,19.7775C55.817,19.9523 56.3207,20.7405 56.1489,21.5405C56.0007,22.2338 55.3844,22.7079 54.703,22.7079C54.5985,22.7079 54.4926,22.696 54.3859,22.6753C52.56,22.2783 50.6704,22.0768 48.7741,22.0768C47.9563,22.0768 47.2926,21.4131 47.2926,20.5953C47.2926,19.7775 47.9593,19.1138 48.777,19.1138ZM48.777,59.2471C42.8363,59.2471 38.0007,54.4146 38.0007,48.4738C38.0007,42.5331 42.8333,37.6975 48.777,37.6975C54.72,37.6975 59.5533,42.5301 59.5533,48.4738C59.5533,54.4146 54.7178,59.2471 48.777,59.2471ZM76.6563,49.9553C75.8385,49.9553 75.1748,49.2916 75.1748,48.4738C75.1748,38.3968 69.3044,29.0546 60.217,24.6783C59.483,24.3227 59.1718,23.4397 59.5296,22.702C59.8881,21.9642 60.7711,21.656 61.5059,22.0146C71.6104,26.8827 78.1378,37.2679 78.1378,48.4797C78.1378,49.2916 77.4763,49.9553 76.6563,49.9553Z" style="fill:rgb(228,68,49);fill-rule:nonzero;"/>
        </g>
    </g>
</svg>
