<?xml version="1.0" standalone="no"?>
<!DOCTYPE svg PUBLIC "-//W3C//DTD SVG 1.1//EN" "http://www.w3.org/Graphics/SVG/1.1/DTD/svg11.dtd">
<svg width="300px" height="300px" version="1.1" xmlns="http://www.w3.org/2000/svg" xmlns:xlink="http://www.w3.org/1999/xlink" xml:space="preserve" style="fill-rule:evenodd;clip-rule:evenodd;stroke-linejoin:round;stroke-miterlimit:1.41421;">
    <g>
        <g id="Layer1">
            <g>
                <path d="M217.06,170.212C217.06,170.212 195.895,151.066 174.523,117.048C187.412,121.497 199.648,124.359 199.648,124.359C199.648,124.359 182.687,109.658 166.424,83.564C176.559,87.1626 186.592,89.5114 186.592,89.5114C186.592,89.5114 172.365,77.83 159.853,57.1683C147.341,36.5066 147.413,24.8236 147.413,24.8236C147.413,24.8236 146.804,37.6311 134.973,57.1683C123.141,76.7039 108.237,89.5114 108.237,89.5114C108.237,89.5114 118.236,87.1846 128.425,83.525C112.957,108.281 95.1767,124.359 95.1767,124.359C95.1767,124.359 107.373,121.522 120.323,117.008C99.9623,149.305 77.7663,170.212 77.7663,170.212C77.7663,170.212 105.767,176.089 127.644,165.488L118.023,285.683L188.1,289.365L164.38,163.963C185.956,174.31 217.06,170.212 217.06,170.212Z" style="fill:rgb(60,152,114);fill-rule:nonzero;stroke-width:1px;stroke:rgb(60,152,114);"/>
            </g>
        </g>
    </g>
</svg>
