<?xml version="1.0" standalone="no"?>
<!DOCTYPE svg PUBLIC "-//W3C//DTD SVG 1.1//EN" "http://www.w3.org/Graphics/SVG/1.1/DTD/svg11.dtd">
<svg width="300px" height="300px" version="1.1" xmlns="http://www.w3.org/2000/svg" xmlns:xlink="http://www.w3.org/1999/xlink" xml:space="preserve" style="fill-rule:evenodd;clip-rule:evenodd;stroke-linejoin:round;stroke-miterlimit:1.41421;">
    <g>
        <g id="Layer1">
            <g>
                <path d="M149.022,46.5221C93.7337,46.5221 48.9003,92.3775 48.9003,148.949C48.9003,194.203 77.5883,232.597 117.37,246.14C122.374,247.088 124.211,243.918 124.211,241.213C124.211,238.772 124.118,230.702 124.075,222.143C96.2207,228.339 90.3431,210.058 90.3431,210.058C85.7887,198.221 79.2264,195.071 79.2264,195.071C70.1423,188.714 79.9111,188.844 79.9111,188.844C89.9651,189.567 95.259,199.401 95.259,199.401C104.189,215.058 118.681,210.531 124.395,207.914C125.295,201.296 127.888,196.776 130.751,194.218C108.513,191.629 85.1354,182.845 85.1354,143.598C85.1354,132.417 89.0466,123.278 95.4514,116.105C94.4118,113.525 90.9848,103.107 96.4229,88.9988C96.4229,88.9988 104.831,86.2477 123.962,99.4997C131.948,97.2302 140.513,96.0921 149.022,96.0514C157.531,96.0921 166.103,97.2302 174.104,99.4997C193.214,86.2477 201.61,88.9988 201.61,88.9988C207.06,103.107 203.633,113.525 202.593,116.105C209.013,123.278 212.896,132.417 212.896,143.598C212.896,182.94 189.474,191.601 167.179,194.136C170.77,197.315 173.97,203.548 173.97,213.104C173.97,226.809 173.855,237.839 173.855,241.213C173.855,243.94 175.656,247.133 180.731,246.128C220.493,232.569 249.144,194.189 249.144,148.949C249.144,92.3775 204.317,46.5221 149.022,46.5221" style="fill:white;"/>
            </g>
        </g>
    </g>
</svg>
