<?xml version="1.0" standalone="no"?>
<!DOCTYPE svg PUBLIC "-//W3C//DTD SVG 1.1//EN" "http://www.w3.org/Graphics/SVG/1.1/DTD/svg11.dtd">
<svg width="100px" height="100px" version="1.1" xmlns="http://www.w3.org/2000/svg" xmlns:xlink="http://www.w3.org/1999/xlink" xml:space="preserve" style="fill-rule:evenodd;clip-rule:evenodd;stroke-linejoin:round;stroke-miterlimit:1.41421;">
    <g id="Calque_1">
        <g>
            <g>
                <path d="M67.699,63.8488C67.6668,63.8054 67.6431,63.7594 67.5956,63.7223C67.5193,63.661 60.2393,57.6517 58.12,49.4518C58.7999,49.4084 59.9239,49.2857 60.9462,48.9342C62.3161,48.4626 65.2085,47.9617 67.8736,47.9617C68.3416,47.9617 68.7214,47.6754 68.7214,47.3226L68.7214,36.7866C68.7214,36.4338 68.3416,36.1476 67.8736,36.1476L65.7086,36.1476C65.6798,36.1476 63.0129,36.1105 61.287,34.8082C60.8276,34.4618 60.2715,34.2101 59.6883,34.0081C60.2308,33.6004 60.5665,33.0368 60.5665,32.4157C60.5665,32.0489 60.4376,31.7077 60.2308,31.401C61.6058,31.2003 62.6484,30.2891 62.6484,29.1951C62.6484,28.735 62.4636,28.3081 62.1466,27.9516C63.369,27.5119 64.2201,26.5789 64.2201,25.4926C64.2201,24.6491 63.6979,23.9028 62.8976,23.4018C63.6979,22.9008 64.2201,22.1544 64.2201,21.3109C64.2201,19.8054 62.5942,18.5798 60.5936,18.5798L56.7705,18.5823C56.6501,18.0532 56.3348,17.588 55.855,17.2123L55.855,16.9247C55.855,12.4784 64.2726,10.1627 64.3591,10.1397C64.3828,10.1333 64.3998,10.1192 64.4218,10.1115C64.4727,10.0936 64.5185,10.0719 64.5642,10.0464C64.6134,10.0195 64.6558,9.99268 64.6948,9.95945C64.71,9.94539 64.7321,9.939 64.7473,9.92494C64.7643,9.90833 64.7694,9.8866 64.7829,9.86871C64.8135,9.83037 64.8389,9.79331 64.8592,9.75113C64.8779,9.71151 64.8914,9.67445 64.8999,9.63355C64.9084,9.59521 64.9101,9.55687 64.9084,9.51725C64.9067,9.47124 64.8982,9.42907 64.883,9.38562C64.8762,9.36517 64.8813,9.34472 64.8711,9.32427C64.8626,9.30638 64.844,9.29488 64.8355,9.27826C64.8118,9.23736 64.7812,9.20158 64.7456,9.16452C64.7117,9.13129 64.6795,9.10061 64.6388,9.0725C64.6202,9.05972 64.61,9.04183 64.588,9.02905C64.5524,9.0086 64.5015,8.99709 64.4659,8.97665C64.4506,8.97026 64.4388,8.96387 64.4218,8.95748C61.0107,7.12734 53.8798,7.52992 47.3203,9.95562C44.9807,10.8183 38.9823,9.51214 36.8682,8.93575L36.8631,8.93447C36.6461,8.87568 36.4172,8.88974 36.2222,8.95748C36.2222,8.95748 36.2205,8.95748 36.2188,8.95748C36.151,8.98176 36.0951,9.0201 36.0374,9.05716C36.012,9.07378 35.9798,9.084 35.956,9.10189C35.9238,9.12873 35.9069,9.16452 35.8797,9.19519C35.8458,9.23481 35.8034,9.27059 35.7814,9.3166L35.7797,9.32044C35.7645,9.35366 35.7695,9.38689 35.7611,9.42012C35.7492,9.46997 35.7289,9.51981 35.7322,9.56965C35.7356,9.61438 35.7594,9.65528 35.7746,9.69745C35.7882,9.73324 35.7899,9.77286 35.8119,9.80609C35.834,9.84315 35.8747,9.87127 35.9069,9.9045C35.9391,9.93772 35.9645,9.97607 36.0052,10.0042C36.0374,10.0259 36.0815,10.0374 36.1188,10.0566C36.1747,10.0847 36.2239,10.1179 36.29,10.1358C36.2951,10.1371 36.307,10.1409 36.3121,10.1422C36.5443,10.2061 44.7992,12.5053 44.7992,16.9222L44.7992,17.4001C43.8176,17.8794 43.2208,18.3983 42.9445,18.682C41.5915,18.8418 40.0674,19.2022 39.0128,19.9971C37.2988,21.2892 34.615,21.3365 34.5997,21.3365L32.4245,21.3365C31.9566,21.3365 31.5768,21.6227 31.5768,21.9755L31.5768,32.5103C31.5768,32.863 31.9566,33.1493 32.4245,33.1493C34.3725,33.1493 36.4358,33.4177 37.943,33.7461C36.8376,34.2139 36.0798,35.0957 36.0798,36.1182C36.0798,36.9617 36.602,37.708 37.4022,38.2103C36.602,38.7113 36.0798,39.4577 36.0798,40.3024C36.0798,41.3888 36.9326,42.3217 38.1533,42.7614C37.8379,43.1179 37.6531,43.5448 37.6531,44.0049C37.6531,45.0989 38.6958,46.0114 40.0708,46.212C39.8639,46.5188 39.7351,46.86 39.7351,47.2268C39.7351,48.3157 40.7676,49.2256 42.1341,49.4314C39.9707,57.5661 32.7076,63.6623 32.633,63.7249C32.5534,63.7901 32.4957,63.8655 32.4601,63.9447C28.6421,67.1321 26.2956,71.3394 26.2956,75.962C26.2956,85.8731 36.9919,93.9362 50.1398,93.9362C63.2876,93.9362 73.9839,85.8719 73.9839,75.962C73.9788,71.2934 71.5849,67.0478 67.699,63.8488ZM46.0148,49.4761L44.6467,54.0732C44.5432,54.4183 44.8315,54.7595 45.2875,54.8375C45.3503,54.8477 45.413,54.8528 45.474,54.8528C45.8623,54.8528 46.2115,54.6509 46.2997,54.3531L47.7509,49.4774L49.2158,49.4774L49.2158,55.4381C49.2158,55.7909 49.5955,56.0771 50.0635,56.0771C50.5314,56.0771 50.9112,55.7909 50.9112,55.4381L50.9112,49.4774L52.5167,49.4774L53.9697,54.3531C54.0578,54.6496 54.4088,54.8528 54.7953,54.8528C54.8564,54.8528 54.9191,54.8477 54.9818,54.8375C55.4396,54.7595 55.7261,54.4183 55.6227,54.0732L54.2528,49.4761L56.3958,49.4761C57.5148,54.0234 60.0968,57.8804 62.3636,60.563C58.7829,58.9399 54.6071,57.9891 50.133,57.9891C45.608,57.9891 41.3898,58.9617 37.782,60.6167C40.0606,57.9213 42.6885,54.031 43.8464,49.4748L46.0148,49.4748ZM42.4647,11.3423C43.3514,11.4458 44.2516,11.5148 45.101,11.5148C46.2268,11.5148 47.2627,11.3998 48.068,11.1007C53.1152,9.23481 58.7948,8.63541 62.0805,9.48914C59.3068,10.5052 54.1612,12.927 54.1612,16.9222L54.1612,17.4513C54.1612,17.4858 54.1545,17.519 54.1612,17.5535L54.1612,18.5798L46.4963,18.5836L46.4963,16.9209C46.493,14.4901 44.5822,12.6459 42.4647,11.3423ZM33.2705,22.6145L34.6082,22.6145C34.7455,22.6132 37.999,22.5672 40.2115,20.9007C41.6984,19.7798 44.7721,19.8233 45.6012,19.8552C45.6181,19.8565 45.6317,19.8616 45.6469,19.8616C45.6571,19.8616 45.6656,19.8578 45.6741,19.8578C45.7063,19.8591 45.7639,19.8616 45.786,19.8616L60.597,19.8552C61.66,19.8552 62.5247,20.507 62.5247,21.3084C62.5247,22.1084 61.6617,22.7589 60.6004,22.7602L51.4062,22.7602C50.9383,22.7602 50.5585,23.0465 50.5585,23.3992C50.5585,23.7519 50.9383,24.0382 51.4062,24.0382L60.5987,24.0382C61.66,24.0395 62.523,24.69 62.523,25.4901C62.523,26.2914 61.6583,26.9432 60.5953,26.9432L51.4062,26.9432C50.9383,26.9432 50.5585,27.2295 50.5585,27.5822C50.5585,27.9349 50.9383,28.2212 51.4062,28.2212L59.6611,28.2212C60.3732,28.2212 60.9513,28.657 60.9513,29.1925C60.9513,29.728 60.3732,30.1638 59.6611,30.1638L51.4062,30.1638C50.9383,30.1638 50.5585,30.4501 50.5585,30.8028C50.5585,31.1556 50.9383,31.4419 51.4062,31.4419L57.5792,31.4419C58.2895,31.4419 58.8694,31.8777 58.8694,32.4132C58.8694,32.9486 58.2912,33.3857 57.5792,33.3857L55.8889,33.3857C55.3531,33.3691 54.936,33.3755 54.6817,33.3857L42.8021,33.3857C42.7868,33.3857 41.2711,33.3768 40.0555,32.9589C38.6365,32.4694 35.9442,31.9748 33.2705,31.884ZM41.4271,47.2268C41.4271,46.6913 42.0052,46.2555 42.7173,46.2555L48.8902,46.2555C49.3582,46.2555 49.7379,45.9692 49.7379,45.6165C49.7379,45.2637 49.3582,44.9775 48.8902,44.9775L40.6353,44.9775C39.925,44.9775 39.3468,44.5417 39.3468,44.0049C39.3468,43.4681 39.925,43.0336 40.6353,43.0336L48.8902,43.0336C49.3582,43.0336 49.7379,42.7473 49.7379,42.3946C49.7379,42.0418 49.3582,41.7555 48.8902,41.7555L39.7012,41.7555C38.6382,41.7555 37.7735,41.1038 37.7735,40.3024C37.7735,39.5011 38.6382,38.8493 39.7012,38.8493L48.8902,38.8493C49.3582,38.8493 49.7379,38.563 49.7379,38.2103C49.7379,37.8576 49.3582,37.5713 48.8902,37.5713L39.7012,37.5713C38.6382,37.5713 37.7735,36.9195 37.7735,36.1182C37.7735,35.3168 38.6382,34.665 39.6978,34.665L41.7662,34.6714L54.5885,34.6689C54.6054,34.6676 54.658,34.6663 54.6868,34.665L55.8821,34.665C57.1536,34.7072 59.027,34.9104 60.0884,35.7105C62.2992,37.377 65.5526,37.423 65.7001,37.4243L67.0276,37.4243L67.0276,46.6964C64.354,46.7872 61.6634,47.2817 60.2427,47.7712C59.027,48.1892 57.5131,48.1981 57.4995,48.1981L57.0265,48.1981C57.0027,48.1994 56.9824,48.193 56.9587,48.1968C56.957,48.1968 56.9536,48.1981 56.9519,48.1981L50.0838,48.1981C50.077,48.1981 50.0702,48.1955 50.0635,48.1955C50.0567,48.1955 50.0499,48.1981 50.0431,48.1981L42.7173,48.1981C42.0052,48.1981 41.4271,47.7623 41.4271,47.2268ZM50.1347,92.6595C37.921,92.6595 27.986,85.1702 27.986,75.9633C27.986,66.7576 37.9227,59.2684 50.1347,59.2684C62.3466,59.2684 72.2834,66.7576 72.2834,75.9633C72.2834,85.1702 62.3483,92.6595 50.1347,92.6595Z" style="fill:rgb(76,126,144);fill-rule:nonzero;stroke-width:0.93px;stroke:rgb(76,126,144);"/>
            </g>
            <g>
                <path d="M62.5772,69.145L64.3269,71.5758C64.4574,71.8276 64.7795,71.9809 65.1169,71.9809C65.2203,71.9809 65.3238,71.9669 65.4272,71.9375C65.8629,71.8084 66.0782,71.4365 65.907,71.1093L65.2305,69.9821L63.2164,67.6689C62.918,67.3954 62.3856,67.357 62.0228,67.5781C61.66,67.8018 61.6074,68.2044 61.9024,68.4779Z" style="fill:rgb(76,126,144);fill-rule:nonzero;stroke-width:0.93px;stroke:rgb(76,126,144);"/>
            </g>
            <g>
                <path d="M66.0104,77.9097C65.5493,77.8305 65.1,78.0452 64.9932,78.389L64.8067,78.9385L63.3639,81.515L61.1649,83.7286L58.3557,85.4757L55.031,86.6821C54.5868,86.7933 54.346,87.155 54.4935,87.4898C54.6105,87.7582 54.9428,87.9282 55.2989,87.9282C55.387,87.9282 55.4769,87.918 55.565,87.8963L57.4808,87.3071L60.5987,85.8412L63.2147,83.9165L65.4035,81.3387C65.4662,81.2428 65.5272,81.1444 65.5798,81.055L66.6479,78.6765C66.7513,78.3328 66.4682,77.9902 66.0104,77.9097Z" style="fill:rgb(76,126,144);fill-rule:nonzero;stroke-width:0.93px;stroke:rgb(76,126,144);"/>
            </g>
        </g>
    </g>
</svg>
