<?xml version="1.0" standalone="no"?>
<!DOCTYPE svg PUBLIC "-//W3C//DTD SVG 1.1//EN" "http://www.w3.org/Graphics/SVG/1.1/DTD/svg11.dtd">
<svg width="2000px" height="1625px" version="1.1" xmlns="http://www.w3.org/2000/svg" xmlns:xlink="http://www.w3.org/1999/xlink" xml:space="preserve" style="fill-rule:evenodd;clip-rule:evenodd;stroke-linejoin:round;stroke-miterlimit:1.41421;">
    <g>
        <g>
            <path d="M1698.56,391.697C1648.54,413.887 1594.77,428.878 1538.35,435.622C1595.93,401.099 1640.17,346.433 1661,281.29C1607.1,313.263 1547.4,336.473 1483.85,348.982C1432.97,294.765 1360.47,260.895 1280.24,260.895C1126.19,260.895 1001.28,385.789 1001.28,539.842C1001.28,561.706 1003.75,582.999 1008.5,603.415C776.664,591.783 571.112,480.723 433.53,311.951C409.516,353.15 395.759,401.072 395.759,452.197C395.759,548.979 445.006,634.361 519.861,684.384C474.133,682.936 431.117,670.386 393.51,649.495C393.484,650.657 393.484,651.82 393.484,653.003C393.484,788.158 489.642,900.898 617.251,926.533C593.847,932.907 569.203,936.319 543.761,936.319C525.786,936.319 508.311,934.567 491.275,931.313C526.773,1042.13 629.794,1122.79 751.863,1125.03C656.393,1199.86 536.113,1244.45 405.415,1244.45C382.898,1244.45 360.692,1243.13 338.87,1240.55C462.321,1319.7 608.953,1365.89 766.485,1365.89C1279.59,1365.89 1560.18,940.823 1560.18,572.189C1560.18,560.095 1559.9,548.068 1559.36,536.103C1613.87,496.767 1661.16,447.642 1698.56,391.697" style="fill:rgb(0,172,237);fill-rule:nonzero;"/>
        </g>
    </g>
</svg>
